<svg width="457" height="440" viewBox="0 0 457 440" fill="none" xmlns="http://www.w3.org/2000/svg">
<path d="M368.783 172.155V65.3966L309.971 152.041L286.756 182.986V291.292L345.567 206.194L368.783 172.155Z" fill="#F24C21"/>
<path d="M286.756 291.292L131.988 331.52L46.8659 152.041L200.086 113.361V5.05481L0.435547 56.1133V164.419L131.988 439.825L457 356.275V247.969L286.756 291.292Z" fill="#F24C21"/>
<g opacity="0.6">
<path d="M309.971 152.041L368.783 65.3966L200.086 5.05481V113.361L309.971 152.041Z" fill="#F24C21"/>
<path d="M457 247.969L345.568 206.194L286.756 291.292L457 247.969Z" fill="#F24C21"/>
</g>
<g opacity="0.4">
<path d="M286.756 182.986L345.567 206.194L368.783 172.155L309.971 152.041L286.756 182.986Z" fill="black"/>
<path d="M46.8658 152.041L0.435547 56.1133V164.419L131.988 439.825V331.52L46.8658 152.041Z" fill="black"/>
<path d="M286.756 291.292L457 356.275V247.969L286.756 291.292Z" fill="black"/>
</g>
</svg>
