<?xml version="1.0" encoding="UTF-8"?>
<!DOCTYPE svg PUBLIC "-//W3C//DTD SVG 1.1//EN"
		"http://www.w3.org/Graphics/SVG/1.1/DTD/svg11.dtd">
<svg version="1.1" id="Layer_1"
		xmlns="http://www.w3.org/2000/svg" xmlns:xlink="http://www.w3.org/1999/xlink" x="0px" y="0px"
		width="1700px" height="1110.3448275862px" viewBox="0 0 330 196"
		style="enable-background:new 0 0 290 176;" xml:space="preserve"><style type="text/css">
	.st0{fill:#f24c21;}
	.st1{opacity:0.6;}
	.st2{opacity:0.4;}
</style><style type='text/css'>.title{fill:#000000;}.slogan{fill:#f24c21;}</style><g transform="scale(3.1886120996441) translate(30.724330357143,0)"><g>
	<g>
		<polygon class="st0" points="23.8,10.8 23.8,3.9 20,9.5 18.5,11.5 18.5,18.5 22.3,13 		"/>
		<polygon class="st0" points="18.5,18.5 8.5,21.1 3,9.5 12.9,7 12.9,0 0,3.3 0,10.3 8.5,28.1 29.5,22.7 29.5,15.7 		"/>
	</g>
	<g class="st1">
		<polygon class="st0" points="20,9.5 23.8,3.9 12.9,0 12.9,7 		"/>
		<polygon class="st0" points="29.5,15.7 22.3,13 18.5,18.5 		"/>
	</g>
	<g class="st2">
		<polygon points="18.5,11.5 22.3,13 23.8,10.8 20,9.5 		"/>
		<polygon points="3,9.5 0,3.3 0,10.3 8.5,28.1 8.5,21.1 		"/>
		<polygon points="18.5,18.5 18.5,18.5 29.5,22.7 29.5,15.7 		"/>
	</g>
</g>
</g><g transform="scale(0.0485) translate(0, 2878.3505154639)"><path transform="translate(0,0) rotate(180) scale(-1, 1)" d="M60 0v595c0 80 42 105 102 105h348c150 0 178 -105 178 -225s-28 -227 -178 -227h-318v-248h-132zM192 353h253c90 0 107 42 107 122s-17 120 -107 120h-203c-40 0 -50 -10 -50 -50v-192z" class='title'/><path transform="translate(718,0) rotate(180) scale(-1, 1)" d="M46 0v330c0 142 72 200 214 200h79v-90h-49c-94 0 -127 -47 -127 -141v-299h-117z" class='title'/><path transform="translate(1057,0) rotate(180) scale(-1, 1)" d="M312 536c190 0 282 -60 282 -270c0 -212 -92 -272 -282 -272s-282 60 -282 272c0 210 92 270 282 270zM151 266c0 -130 41 -182 161 -182s161 52 161 182s-41 180 -161 180s-161 -50 -161 -180z" class='title'/><path transform="translate(1681,0) rotate(180) scale(-1, 1)" d="M341 0h-73c-120 0 -195 43 -195 173v267h-73v90h73v170h117v-170h151v-90h-151v-243c0 -80 42 -107 122 -107h29v-90z" class='title'/><path transform="translate(2022,0) rotate(180) scale(-1, 1)" d="M312 536c190 0 282 -60 282 -270c0 -212 -92 -272 -282 -272s-282 60 -282 272c0 210 92 270 282 270zM151 266c0 -130 41 -182 161 -182s161 52 161 182s-41 180 -161 180s-161 -50 -161 -180z" class='title'/><path transform="translate(2646,0) rotate(180) scale(-1, 1)" d="M46 0v440c0 60 30 90 90 90h459c120 0 206 -41 206 -181v-349h-117v318c0 80 -31 122 -111 122h-91v-440h-117v440h-172c-20 0 -30 -10 -30 -30v-410h-117z" class='title'/><path transform="translate(3493,0) rotate(180) scale(-1, 1)" d="M69 530h301c100 0 149 -66 149 -156v-284c0 -60 -30 -90 -90 -90h-267c-90 0 -132 55 -132 165c0 100 42 165 132 165h240v34c0 50 -24 76 -74 76h-259v90zM402 240h-195c-40 0 -56 -25 -56 -75s16 -75 56 -75h165c20 0 30 10 30 30v120z" class='title'/><path transform="translate(4058,0) rotate(180) scale(-1, 1)" d="M33 0v90h298c24 0 49 13 49 48c0 56 -63 60 -111 74l-102 28c-114 31 -141 78 -141 154c0 96 45 136 152 136h299v-90h-281c-38 0 -56 -9 -56 -48c0 -45 44 -57 83 -68l114 -32c94 -26 165 -49 165 -157c0 -81 -29 -135 -130 -135h-339z" class='title'/><path transform="translate(4586,0) rotate(180) scale(-1, 1)" d="M341 0h-73c-120 0 -195 43 -195 173v267h-73v90h73v170h117v-170h151v-90h-151v-243c0 -80 42 -107 122 -107h29v-90z" class='title'/><path transform="translate(4927,0) rotate(180) scale(-1, 1)" d="M524 0h-294c-170 0 -200 96 -200 266c0 210 76 270 256 270c150 0 255 -40 255 -210c0 -60 -22 -100 -82 -100h-308c0 -80 14 -136 114 -136h259v-90zM151 316h243c23 0 26 16 26 31c0 70 -64 99 -134 99c-100 0 -135 -40 -135 -130z" class='title'/><path transform="translate(5498,0) rotate(180) scale(-1, 1)" d="M46 0v330c0 142 72 200 214 200h79v-90h-49c-94 0 -127 -47 -127 -141v-299h-117z" class='title'/></g><g transform="scale(0.015) translate(3306.7708333333, 11066.666666667)"><path transform="translate(0,0) rotate(180) scale(-1, 1)" d="M388 0h-252c-60 0 -90 30 -90 90v350c0 60 30 90 90 90h245c90 0 148 -26 148 -126c0 -70 -14 -119 -87 -128v-4c72 -12 91 -52 91 -122c0 -100 -35 -150 -145 -150zM163 229v-109c0 -20 10 -30 30 -30h151c50 0 68 20 68 70c0 40 -18 69 -68 69h-181zM163 319h181 c44 0 64 21 64 61s-20 60 -64 60h-151c-20 0 -30 -10 -30 -30v-91z" class='slogan'/><path transform="translate(567,0) rotate(180) scale(-1, 1)" d="M479 440h-193c-123 0 -135 -74 -135 -174s12 -176 135 -176h205v-90h-234c-180 0 -227 106 -227 266s47 264 227 264h222v-90z" class='slogan'/><path transform="translate(1082,0) rotate(180) scale(-1, 1)" d="M524 0h-294c-170 0 -200 96 -200 266c0 210 76 270 256 270c150 0 255 -40 255 -210c0 -60 -22 -100 -82 -100h-308c0 -80 14 -136 114 -136h259v-90zM151 316h243c23 0 26 16 26 31c0 70 -64 99 -134 99c-100 0 -135 -40 -135 -130z" class='slogan'/><path transform="translate(1653,0) rotate(180) scale(-1, 1)" d="M46 0v440c0 60 30 90 90 90h353v-90h-296c-20 0 -30 -10 -30 -30v-410h-117z" class='slogan'/><path transform="translate(2142,0) rotate(180) scale(-1, 1)" d="M-14 -125v125c0 60 30 90 90 90h18l173 394c14 32 39 52 94 52c56 0 80 -23 93 -52l174 -394h17c60 0 90 -30 90 -90v-125h-117v95c0 20 -10 30 -30 30h-459c-17 0 -26 -11 -26 -30v-95h-117zM346 413l-130 -323h290l-131 323c-5 12 -7 20 -14 20c-4 0 -10 -7 -15 -20z " class='slogan'/><path transform="translate(2863,0) rotate(180) scale(-1, 1)" d="M69 530h301c100 0 149 -66 149 -156v-284c0 -60 -30 -90 -90 -90h-267c-90 0 -132 55 -132 165c0 100 42 165 132 165h240v34c0 50 -24 76 -74 76h-259v90zM402 240h-195c-40 0 -56 -25 -56 -75s16 -75 56 -75h165c20 0 30 10 30 30v120z" class='slogan'/><path transform="translate(3661,0) rotate(180) scale(-1, 1)" d="M-10 0l209 492c15 36 52 44 84 44s69 -8 84 -44l209 -492h-128l-155 409c-2 5 -5 15 -10 15s-8 -10 -10 -15l-155 -409h-128z" class='slogan'/><path transform="translate(4227,0) rotate(180) scale(-1, 1)" d="M580 530l-316 -701h-119l81 173l-236 528h121l170 -407l180 407h119z" class='slogan'/><path transform="translate(4797,0) rotate(180) scale(-1, 1)" d="M515 0h-117v222h-234c-100 0 -134 50 -134 150v158h117v-133c0 -60 14 -85 74 -85h177v218h117v-530z" class='slogan'/><path transform="translate(5358,0) rotate(180) scale(-1, 1)" d="M785 530v-440c0 -60 -30 -90 -90 -90h-559c-60 0 -90 30 -90 90v440h117v-410c0 -20 10 -30 30 -30h164v440h117v-440h164c20 0 30 10 30 30v410h117z" class='slogan'/><path transform="translate(6189,0) rotate(180) scale(-1, 1)" d="M565 0h-117l4 377c0 11 -2 14 -6 14c-3 0 -6 -2 -14 -14l-233 -341c-19 -28 -36 -42 -76 -42c-68 0 -77 47 -77 75v461h117l-5 -377c0 -9 0 -14 8 -14c7 0 10 7 14 14l236 347c21 31 48 36 72 36c16 0 77 -2 77 -81v-455z" class='slogan'/><path transform="translate(6800,0) rotate(180) scale(-1, 1)" d="M565 0h-117l4 377c0 11 -2 14 -6 14c-3 0 -6 -2 -14 -14l-233 -341c-19 -28 -36 -42 -76 -42c-68 0 -77 47 -77 75v461h117l-5 -377c0 -9 0 -14 8 -14c7 0 10 7 14 14l236 347c21 31 48 36 72 36c16 0 77 -2 77 -81v-455zM305 626c46 0 70 22 85 67h100 c-25 -98 -85 -140 -185 -140s-160 42 -184 140h100c14 -45 38 -67 84 -67z" class='slogan'/><path transform="translate(7644,0) rotate(180) scale(-1, 1)" d="M136 530h185c170 0 217 -104 217 -264s-47 -266 -217 -266h-158v-170h-117v610c0 60 30 90 90 90zM163 414v-324h129c113 0 125 76 125 176s-12 174 -125 174h-99c-19 0 -30 -9 -30 -26z" class='slogan'/><path transform="translate(8212,0) rotate(180) scale(-1, 1)" d="M524 0h-294c-170 0 -200 96 -200 266c0 210 76 270 256 270c150 0 255 -40 255 -210c0 -60 -22 -100 -82 -100h-308c0 -80 14 -136 114 -136h259v-90zM151 316h243c23 0 26 16 26 31c0 70 -64 99 -134 99c-100 0 -135 -40 -135 -130z" class='slogan'/><path transform="translate(8783,0) rotate(180) scale(-1, 1)" d="M355 0h-315v90h271c50 0 68 20 68 70c0 40 -18 69 -68 69h-256v90h256c44 0 64 21 64 61s-20 60 -64 60h-262v90h299c90 0 148 -26 148 -126c0 -70 -14 -119 -87 -128v-4c72 -12 91 -52 91 -122c0 -100 -35 -150 -145 -150z" class='slogan'/><path transform="translate(9317,0) rotate(180) scale(-1, 1)" d="M580 530l-316 -701h-119l81 173l-236 528h121l170 -407l180 407h119z" class='slogan'/><path transform="translate(9887,0) rotate(180) scale(-1, 1)" d="M-10 0l209 492c15 36 52 44 84 44s69 -8 84 -44l209 -492h-128l-155 409c-2 5 -5 15 -10 15s-8 -10 -10 -15l-155 -409h-128z" class='slogan'/><path transform="translate(10453,0) rotate(180) scale(-1, 1)" d="M402 0h-266c-60 0 -90 30 -90 90v440h117v-201h239c104 0 134 -64 134 -164s-30 -165 -134 -165zM163 239v-119c0 -20 10 -30 30 -30h160c50 0 62 25 62 75s-12 74 -62 74h-190z" class='slogan'/><path transform="translate(11015,0) rotate(180) scale(-1, 1)" d="M316 0h-117v440h-199v90h515v-90h-199v-440z" class='slogan'/><path transform="translate(11530,0) rotate(180) scale(-1, 1)" d="M69 530h301c100 0 149 -66 149 -156v-284c0 -60 -30 -90 -90 -90h-267c-90 0 -132 55 -132 165c0 100 42 165 132 165h240v34c0 50 -24 76 -74 76h-259v90zM402 240h-195c-40 0 -56 -25 -56 -75s16 -75 56 -75h165c20 0 30 10 30 30v120z" class='slogan'/><path transform="translate(12095,0) rotate(180) scale(-1, 1)" d="M316 0h-117v440h-199v90h515v-90h-199v-440z" class='slogan'/></g></svg>